<svg height="512" viewBox="0 0 58 60" width="512" xmlns="http://www.w3.org/2000/svg"><g id="Page-1" fill="none" fill-rule="evenodd"><g id="001---Party" fill-rule="nonzero" transform="translate(-1 -1)"><path id="Shape" d="m57 36.69c0 14.36-11.64 23.31-26 23.31s-26-8.95-26-23.31 11.64-28.69 26-28.69c2.5881487.00098103 5.1552506.4649559 7.58 1.37l-2.39 1.16c-.4663719.2232222-.6804377.7693085-.49 1.25.46 1.16 1.76 3.41 5.31 6.45s5.99 3.95 7.21 4.23c.5080815.1116279 1.0155838-.1902484 1.16-.69l1.06-3.52c4.1617799 5.2542665 6.4682908 11.7378124 6.56 18.44z" fill="#ffdf00"/><path id="Shape" d="m50.44 18.25-.909 3.019c2.8655759 4.6377212 4.4107834 9.9697071 4.469 15.421 0 13.856-10.839 22.672-24.5 23.274.5.022 1 .036 1.5.036 14.36 0 26-8.95 26-23.31-.0917092-6.7021876-2.3982201-13.1857335-6.56-18.44z" fill="#fec108"/><path id="Shape" d="m54.96 3.3c0 .006-.9 2.98-2.51 8.31l-1.72-8.13v-.01c1.05-.5 2.01-.97 2.83-1.37.360061-.17116085.7871442-.11426508 1.0898391.1451877.3026949.25945279.4242399.67280977.3101609 1.0548123z" fill="#02a9f4"/><path id="Shape" d="m53.56 2.1-1.577.767c.0245244.14425385.0166682.29215592-.023.433 0 0-.26.863-.745 2.47l1.235 5.84c1.61-5.33 2.51-8.3 2.51-8.31.114079-.38200253-.007466-.79535951-.3101609-1.0548123-.3026949-.25945278-.7297781-.31634855-1.0898391-.1451877z" fill="#0377bc"/><path id="Shape" d="m52.45 11.61v.01c-.77 2.55-1.77 5.86-3.07 10.15-.0581434.1928395-.1731636.3636272-.33.49l-3.43-16.3v-.01c1.78-.86 3.54-1.71 5.11-2.47z" fill="#e91e63"/><path id="Shape" d="m50.73 3.48-2.722 1.32 1.442 6.81v.01c-.439 1.452-.955 3.162-1.556 5.148l1.156 5.492c.1568364-.1263728.2718566-.2971605.33-.49 1.3-4.29 2.3-7.6 3.07-10.15v-.01z" fill="#ad1457"/><path id="Shape" d="m49.05 22.26c-.229661.1937967-.5372746.2679205-.83.2-1.8440251-.5140166-3.56974-1.3836682-5.08-2.56v-.01l-2.44-11.55c1.57-.76 3.25-1.58 4.92-2.38z" fill="#02a9f4"/><path id="Shape" d="m43.14 19.89c-.65-.46-1.37-1.01-2.13-1.66-3.55-3.04-4.85-5.29-5.31-6.45-.1904377-.4806915.0236281-1.0267778.49-1.25 1.24-.6 2.81-1.36 4.51-2.19z" fill="#e91e63"/><path id="Shape" d="m28.77 46c-.4970501.547345-.7716714 1.2606472-.77 2h-7c-.5522847 0-1-.4477153-1-1v-2c0-.5522847.4477153-1 1-1h7c-.0016714.7393528.2729499 1.452655.77 2z" fill="#e91e63"/><path id="Shape" d="m28 44h-3.0000076c-.0016638.7393528.2729575 1.452655.7700076 2-.4970501.547345-.7716714 1.2606472-.7700076 2h3.0000076c-.0016714-.7393528.2729499-1.452655.77-2-.4970501-.547345-.7716714-1.2606472-.77-2z" fill="#ad1457"/><path id="Shape" d="m18 18.18c-.4156971.0001788-.7881526-.2568328-.935501-.6455391-.1473483-.3887062-.0388562-.8280325.272501-1.1034609 2.6758492-2.4263703 5.9251432-4.1318883 9.442-4.956.5387538-.1220549 1.0744451.2157462 1.1965.7545s-.2157462 1.0744451-.7545 1.1965c-3.1885912.7487262-6.1338761 2.297427-8.558 4.5-.1824927.1629114-.4183713.2532781-.663.254z" fill="#f5f5f5"/><g fill="#000"><path id="Shape" d="m6.171 46.749c4.008 8.636 13.238 14.251 24.829 14.251 15.645 0 27-10.224 27-24.31-.1028766-6.7428693-2.366095-13.2749025-6.457-18.636l4.37-14.469c.235188-.76078318-.0087663-1.58841494-.619-2.1-.6007781-.52495614-1.4582102-.63736099-2.174-.285l-14.614 7.1c-2.4108548-.85325664-4.9486154-1.29278352-7.506-1.3-13.365 0-25.594 12.66-26.881 27.179-2.28599147 1.5200488-3.47057897 4.2374759-3.02828575 6.9468452s2.42957034 4.9090028 5.08028575 5.6231548zm33.816-36.949 1.606 7.6c-3.389-2.906-4.57-5-4.962-5.975zm4.052 9.506-2.2-10.4 3.066-1.487 2.923 13.891c-1.3528013-.4814269-2.628976-1.1557213-3.789-2.002zm2.722-12.789 3.257-1.58 1.4 6.639-2.116 7.037zm7.239-3.51-1.379 4.577-.749-3.546zm-23 5.993c1.6284687.0065463 3.2504316.20593496 4.832.594l-.074.036c-.9395794.4526973-1.3712461 1.5532293-.99 2.524.575 1.431 2.013 3.778 5.6 6.834s6.125 4.106 7.632 4.449c.1411522.0316438.2853445.0477397.43.048.8795599-.0042079 1.6531337-.5825619 1.906-1.425l.478-1.584c3.2935268 4.7731515 5.0982157 10.4155013 5.186 16.214 0 13.136-10.28 22.31-25 22.31-10.445 0-18.65-4.623-22.537-12h10.537c0 1.1045695.8954305 2 2 2h6.142c.4545933 1.7606851 2.0395884 2.9931852 3.858 3 .5522847 0 1-.4477153 1-1s-.4477153-1-1-1c-1.1045695 0-2-.8954305-2-2-.0004504-.4910555.1816813-.9647406.511-1.329.3447235-.3809207.3447235-.9610793 0-1.342-.3293187-.3642594-.5114504-.8379445-.511-1.329 0-1.1045695.8954305-2 2-2 .5522847 0 1-.4477153 1-1s-.4477153-1-1-1c-1.8184116.0068148-3.4034067 1.2393149-3.858 3h-6.142c-1.1045695 0-2 .8954305-2 2h-11c-.163 0-.318-.033-.477-.048-1.02342734-2.6335172-1.54015368-5.4366643-1.523-8.262 0-.427.013-.856.035-1.285.62066593-.2671501 1.28928157-.4049564 1.965-.405h2c1.1045695 0 2 .8954305 2 2s-.8954305 2-2 2h-1c-.55228475 0-1 .4477153-1 1s.44771525 1 1 1h1c2.209139 0 4-1.790861 4-4s-1.790861-4-4-4h-2c-.5920832.0025099-1.18145572.0801296-1.754.231 1.659-12.06 11.698-24.231 24.754-24.231zm-3.871 36c.0902342.3503782.2278357.6868122.409 1-.1811643.3131878-.3187658.6496218-.409 1h-6.129v-2zm-23.121-7.979c.02143973 2.3946934.398212 4.7729419 1.118 7.057-1.10815842-.769187-1.85415141-1.9575443-2.0652253-3.2898774s.13107931-2.6930791.9472253-3.7671226z"/><path id="Shape" d="m16.573 33.15c-.4995416.2358256-.7133256.8319584-.4775 1.3315s.8319584.7133256 1.3315.4775c5.143-2.432 7.674.522 7.794.667.3492752.4147855.965493.4756217 1.3891344.1371426.4236414-.3384792.5003243-.9529262.1728656-1.3851426-1.208-1.522-4.897-3.74-10.21-1.228z"/><path id="Shape" d="m36 35.995c.3013877.001158.5872224-.1336766.778-.367.105-.128 2.635-3.109 7.8-.669.4995416.2358256 1.0956744.0220416 1.3315-.4775s.0220416-1.0956744-.4775-1.3315c-5.312-2.51-9-.295-10.21 1.228-.235112.2998464-.2793927.7072474-.1141908 1.0506042.165202.3433567.5111738.5629925.8921908.5663958z"/><path id="Shape" d="m16 27.275c.2613495.0007638.5126127-.1008183.7-.283 1.0922967-.9544693 2.6142485-1.246094 3.982-.763.3394023.1128959.7132522.0361471.9807241-.201336.2674719-.237483.3879305-.599621.3160001-.95-.0719305-.350379-.3253219-.6357681-.6647242-.748664-2.0835008-.722079-4.3951153-.2454021-6.023 1.242-.2810813.2867452-.3633909.7138074-.2090167 1.0844799s.5154903.6130609.9170167.6155201z"/><path id="Shape" d="m41.316 26.229c1.3671656-.4844976 2.8893922-.1931294 3.981.762.3934268.3780144 1.017241.370901 1.4019456-.0159864.3847047-.3868873.3882886-1.0107318.0080544-1.4020136-1.6277817-1.4876039-3.9395139-1.9643051-6.023-1.242-.5246705.174522-.808522.7413295-.634 1.266s.7413295.808522 1.266.634z"/><path id="Shape" d="m37 40c-.5522847-.001933-1.001567.4442153-1.0035.9965s.4442153 1.001567.9965 1.0035c.5414275-.0365353 1.0723156.162164 1.456703.5452108s.5849404.9132374.550297 1.4547892c0 .5522847.4477153 1 1 1s1-.4477153 1-1c.0315929-1.0702387-.3796808-2.1061138-1.1367835-2.8632165s-1.7929778-1.1683764-2.8632165-1.1367835z"/><path id="Shape" d="m55.293 15.293c-.3903819.3904999-.3903819 1.0235001 0 1.414l.293.293-.293.293c-.2599566.2510745-.3642126.6228779-.2726972.9725073.0915155.3496295.3645604.6226744.7141899.7141899.3496294.0915154.7214328-.0127406.9725073-.2726972l.293-.293.293.293c.3923789.3789722 1.0160848.3735524 1.4018186-.0121814s.3911536-1.0094397.0121814-1.4018186l-.293-.293.293-.293c.3789722-.3923789.3735524-1.0160848-.0121814-1.4018186s-1.0094397-.3911536-1.4018186-.0121814l-.293.293-.293-.293c-.3904999-.3903819-1.0235001-.3903819-1.414 0z"/><path id="Shape" d="m3.293 18.707c.39049985.3903819 1.02350015.3903819 1.414 0l.293-.293.293.293c.25107447.2599566.62287789.3642126.97250732.2726972.34962944-.0915155.6226744-.3645604.71418984-.7141899.09151544-.3496294-.01274058-.7214328-.27269716-.9725073l-.293-.293.293-.293c.37897221-.3923789.37355237-1.0160848-.01218142-1.4018186-.3857338-.3857338-1.00943969-.3911536-1.40181858-.0121814l-.293.293-.293-.293c-.39237889-.3789722-1.01608478-.3735524-1.40181858.0121814-.38573379.3857338-.39115363 1.0094397-.01218142 1.4018186l.293.293-.293.293c-.39038194.3904999-.39038194 1.0235001 0 1.414z"/><path id="Shape" d="m9.293 12.707c.39049985.3903819 1.0235001.3903819 1.414 0l.293-.293.293.293c.3923789.3789722 1.0160848.3735524 1.4018186-.0121814s.3911536-1.0094397.0121814-1.4018186l-.293-.293.293-.293c.3789722-.3923789.3735524-1.01608478-.0121814-1.40181858-.3857338-.38573379-1.0094397-.39115363-1.4018186-.01218142l-.293.293-.293-.293c-.3923789-.37897221-1.01608478-.37355237-1.40181858.01218142-.38573379.3857338-.39115363 1.00943968-.01218142 1.40181858l.293.293-.293.293c-.39038194.3904999-.39038194 1.0235001 0 1.414z"/><path id="Shape" d="m37.293 4.707c.3904999.39038194 1.0235001.39038194 1.414 0l.293-.293.293.293c.3923789.37897221 1.0160848.37355237 1.4018186-.01218142.3857338-.3857338.3911536-1.00943969.0121814-1.40181858l-.293-.293.293-.293c.3789722-.39237889.3735524-1.01608478-.0121814-1.40181858-.3857338-.38573379-1.0094397-.39115363-1.4018186-.01218142l-.293.293-.293-.293c-.3923789-.37897221-1.0160848-.37355237-1.4018186.01218142-.3857338.3857338-.3911536 1.00943969-.0121814 1.40181858l.293.293-.293.293c-.3903819.39049985-.3903819 1.02350015 0 1.414z"/></g></g></g></svg>